<?xml version="1.0" encoding="UTF-8" standalone="no"?>
<!DOCTYPE svg PUBLIC "-//W3C//DTD SVG 1.1//EN"
 "http://www.w3.org/Graphics/SVG/1.1/DTD/svg11.dtd">
<!-- Generated by graphviz version 2.43.0 (0)
 -->
<!-- Title: sourcetree Pages: 1 -->
<svg width="446pt" height="260pt"
 viewBox="0.00 0.00 446.00 260.00" xmlns="http://www.w3.org/2000/svg" xmlns:xlink="http://www.w3.org/1999/xlink">
<g id="graph0" class="graph" transform="scale(1 1) rotate(0) translate(4 256)">
<title>sourcetree</title>
<polygon fill="white" stroke="transparent" points="-4,4 -4,-256 442,-256 442,4 -4,4"/>
<!-- MulleObjCUUIDFoundation -->
<g id="node1" class="node">
<title>MulleObjCUUIDFoundation</title>
<polygon fill="yellow" stroke="black" points="380.5,-252 167.5,-252 167.5,-216 380.5,-216 380.5,-252"/>
<text text-anchor="middle" x="274" y="-230.3" font-family="Times,serif" font-size="14.00">MulleObjCUUIDFoundation</text>
</g>
<!-- MulleObjCValueFoundation -->
<g id="node6" class="node">
<title>MulleObjCValueFoundation</title>
<g id="a_node6"><a xlink:href="https://github.com/MulleFoundation/MulleObjCValueFoundation" xlink:title="MulleObjCValueFoundation">
<polygon fill="lightgrey" stroke="black" points="304,-180 92,-180 92,-144 304,-144 304,-180"/>
<text text-anchor="middle" x="198" y="-158.3" font-family="Times,serif" font-size="14.00">MulleObjCValueFoundation</text>
</a>
</g>
</g>
<!-- MulleObjCUUIDFoundation&#45;&gt;MulleObjCValueFoundation -->
<g id="edge4" class="edge">
<title>MulleObjCUUIDFoundation&#45;&gt;MulleObjCValueFoundation</title>
<path fill="none" stroke="black" d="M255.21,-215.7C245.83,-207.05 234.32,-196.45 224.09,-187.03"/>
<polygon fill="black" stroke="black" points="226.3,-184.3 216.57,-180.1 221.55,-189.45 226.3,-184.3"/>
</g>
<!-- uuid4 -->
<g id="node7" class="node">
<title>uuid4</title>
<g id="a_node7"><a xlink:href="https://github.com/rxi/uuid4" xlink:title="uuid4">
<polygon fill="lightgrey" stroke="black" points="379.5,-180 322.5,-180 322.5,-144 379.5,-144 379.5,-180"/>
<text text-anchor="middle" x="351" y="-158.3" font-family="Times,serif" font-size="14.00">uuid4</text>
</a>
</g>
</g>
<!-- MulleObjCUUIDFoundation&#45;&gt;uuid4 -->
<g id="edge5" class="edge">
<title>MulleObjCUUIDFoundation&#45;&gt;uuid4</title>
<path fill="none" stroke="black" d="M293.03,-215.7C302.54,-207.05 314.21,-196.45 324.57,-187.03"/>
<polygon fill="black" stroke="black" points="327.14,-189.42 332.19,-180.1 322.43,-184.24 327.14,-189.42"/>
</g>
<!-- mulle&#45;objc&#45;cc -->
<g id="node2" class="node">
<title>mulle&#45;objc&#45;cc</title>
<g id="a_node2"><a xlink:href="https://github.com/mulle-cc/mulle-objc-cc" xlink:title="mulle&#45;objc&#45;cc">
<polygon fill="lightgrey" stroke="black" points="110,-36 0,-36 0,0 110,0 110,-36"/>
<text text-anchor="middle" x="55" y="-14.3" font-family="Times,serif" font-size="14.00">mulle&#45;objc&#45;cc</text>
</a>
</g>
</g>
<!-- mulle&#45;objc&#45;debug -->
<g id="node3" class="node">
<title>mulle&#45;objc&#45;debug</title>
<g id="a_node3"><a xlink:href="https://github.com/mulle-objc/mulle-objc-debug" xlink:title="mulle&#45;objc&#45;debug">
<polygon fill="lightgrey" stroke="black" points="267.5,-36 128.5,-36 128.5,0 267.5,0 267.5,-36"/>
<text text-anchor="middle" x="198" y="-14.3" font-family="Times,serif" font-size="14.00">mulle&#45;objc&#45;debug</text>
</a>
</g>
</g>
<!-- MulleObjC -->
<g id="node4" class="node">
<title>MulleObjC</title>
<g id="a_node4"><a xlink:href="https://github.com/mulle-objc/MulleObjC" xlink:title="MulleObjC">
<polygon fill="lightgrey" stroke="black" points="244,-108 152,-108 152,-72 244,-72 244,-108"/>
<text text-anchor="middle" x="198" y="-86.3" font-family="Times,serif" font-size="14.00">MulleObjC</text>
</a>
</g>
</g>
<!-- MulleObjC&#45;&gt;mulle&#45;objc&#45;cc -->
<g id="edge1" class="edge">
<title>MulleObjC&#45;&gt;mulle&#45;objc&#45;cc</title>
<path fill="none" stroke="black" d="M163.02,-71.88C143.8,-62.47 119.77,-50.71 99.26,-40.67"/>
<polygon fill="black" stroke="black" points="100.64,-37.44 90.12,-36.19 97.56,-43.73 100.64,-37.44"/>
</g>
<!-- MulleObjC&#45;&gt;mulle&#45;objc&#45;debug -->
<g id="edge2" class="edge">
<title>MulleObjC&#45;&gt;mulle&#45;objc&#45;debug</title>
<path fill="none" stroke="black" d="M198,-71.7C198,-63.98 198,-54.71 198,-46.11"/>
<polygon fill="black" stroke="black" points="201.5,-46.1 198,-36.1 194.5,-46.1 201.5,-46.1"/>
</g>
<!-- mulle&#45;objc&#45;runtime -->
<g id="node5" class="node">
<title>mulle&#45;objc&#45;runtime</title>
<g id="a_node5"><a xlink:href="https://github.com/mulle-objc/mulle-objc-runtime" xlink:title="mulle&#45;objc&#45;runtime">
<polygon fill="lightgrey" stroke="black" points="438,-36 286,-36 286,0 438,0 438,-36"/>
<text text-anchor="middle" x="362" y="-14.3" font-family="Times,serif" font-size="14.00">mulle&#45;objc&#45;runtime</text>
</a>
</g>
</g>
<!-- MulleObjC&#45;&gt;mulle&#45;objc&#45;runtime -->
<g id="edge3" class="edge">
<title>MulleObjC&#45;&gt;mulle&#45;objc&#45;runtime</title>
<path fill="none" stroke="black" d="M238.12,-71.88C260.64,-62.26 288.92,-50.19 312.77,-40.01"/>
<polygon fill="black" stroke="black" points="314.19,-43.21 322.01,-36.07 311.44,-36.77 314.19,-43.21"/>
</g>
<!-- MulleObjCValueFoundation&#45;&gt;MulleObjC -->
<g id="edge6" class="edge">
<title>MulleObjCValueFoundation&#45;&gt;MulleObjC</title>
<path fill="none" stroke="black" d="M198,-143.7C198,-135.98 198,-126.71 198,-118.11"/>
<polygon fill="black" stroke="black" points="201.5,-118.1 198,-108.1 194.5,-118.1 201.5,-118.1"/>
</g>
</g>
</svg>
