<?xml version="1.0" encoding="UTF-8" standalone="no"?>
<!DOCTYPE svg PUBLIC "-//W3C//DTD SVG 1.1//EN"
 "http://www.w3.org/Graphics/SVG/1.1/DTD/svg11.dtd">
<!-- Generated by graphviz version 2.43.0 (0)
 -->
<!-- Title: sourcetree Pages: 1 -->
<svg width="297pt" height="116pt"
 viewBox="0.00 0.00 296.50 116.00" xmlns="http://www.w3.org/2000/svg" xmlns:xlink="http://www.w3.org/1999/xlink">
<g id="graph0" class="graph" transform="scale(1 1) rotate(0) translate(4 112)">
<title>sourcetree</title>
<polygon fill="white" stroke="transparent" points="-4,4 -4,-112 292.5,-112 292.5,4 -4,4"/>
<!-- MulleObjCUUIDFoundation -->
<g id="node1" class="node">
<title>MulleObjCUUIDFoundation</title>
<polygon fill="yellow" stroke="black" points="288.5,-108 75.5,-108 75.5,-72 288.5,-72 288.5,-108"/>
<text text-anchor="middle" x="182" y="-86.3" font-family="Times,serif" font-size="14.00">MulleObjCUUIDFoundation</text>
</g>
<!-- MulleObjCValueFoundation -->
<g id="node2" class="node">
<title>MulleObjCValueFoundation</title>
<g id="a_node2"><a xlink:href="https://github.com/MulleFoundation/MulleObjCValueFoundation" xlink:title="MulleObjCValueFoundation">
<polygon fill="lightgrey" stroke="black" points="212,-36 0,-36 0,0 212,0 212,-36"/>
<text text-anchor="middle" x="106" y="-14.3" font-family="Times,serif" font-size="14.00">MulleObjCValueFoundation</text>
</a>
</g>
</g>
<!-- MulleObjCUUIDFoundation&#45;&gt;MulleObjCValueFoundation -->
<g id="edge1" class="edge">
<title>MulleObjCUUIDFoundation&#45;&gt;MulleObjCValueFoundation</title>
<path fill="none" stroke="black" d="M163.21,-71.7C153.83,-63.05 142.32,-52.45 132.09,-43.03"/>
<polygon fill="black" stroke="black" points="134.3,-40.3 124.57,-36.1 129.55,-45.45 134.3,-40.3"/>
</g>
<!-- uuid4 -->
<g id="node3" class="node">
<title>uuid4</title>
<g id="a_node3"><a xlink:href="https://github.com/rxi/uuid4" xlink:title="uuid4">
<polygon fill="lightgrey" stroke="black" points="287.5,-36 230.5,-36 230.5,0 287.5,0 287.5,-36"/>
<text text-anchor="middle" x="259" y="-14.3" font-family="Times,serif" font-size="14.00">uuid4</text>
</a>
</g>
</g>
<!-- MulleObjCUUIDFoundation&#45;&gt;uuid4 -->
<g id="edge2" class="edge">
<title>MulleObjCUUIDFoundation&#45;&gt;uuid4</title>
<path fill="none" stroke="black" d="M201.03,-71.7C210.54,-63.05 222.21,-52.45 232.57,-43.03"/>
<polygon fill="black" stroke="black" points="235.14,-45.42 240.19,-36.1 230.43,-40.24 235.14,-45.42"/>
</g>
</g>
</svg>
