<?xml version="1.0" encoding="UTF-8" standalone="no"?>
<!DOCTYPE svg PUBLIC "-//W3C//DTD SVG 1.1//EN"
 "http://www.w3.org/Graphics/SVG/1.1/DTD/svg11.dtd">
<!-- Generated by graphviz version 2.43.0 (0)
 -->
<!-- Title: sourcetree Pages: 1 -->
<svg width="698pt" height="260pt"
 viewBox="0.00 0.00 697.50 260.00" xmlns="http://www.w3.org/2000/svg" xmlns:xlink="http://www.w3.org/1999/xlink">
<g id="graph0" class="graph" transform="scale(1 1) rotate(0) translate(4 256)">
<title>sourcetree</title>
<polygon fill="white" stroke="transparent" points="-4,4 -4,-256 693.5,-256 693.5,4 -4,4"/>
<!-- MulleObjCUUIDFoundation -->
<g id="node1" class="node">
<title>MulleObjCUUIDFoundation</title>
<polygon fill="yellow" stroke="black" points="560,-252 347,-252 347,-216 560,-216 560,-252"/>
<text text-anchor="middle" x="453.5" y="-230.3" font-family="Times,serif" font-size="14.00">MulleObjCUUIDFoundation</text>
</g>
<!-- MulleObjCValueFoundation -->
<g id="node9" class="node">
<title>MulleObjCValueFoundation</title>
<g id="a_node9"><a xlink:href="https://github.com/MulleFoundation/MulleObjCValueFoundation" xlink:title="MulleObjCValueFoundation">
<polygon fill="lightgrey" stroke="black" points="483.5,-180 271.5,-180 271.5,-144 483.5,-144 483.5,-180"/>
<text text-anchor="middle" x="377.5" y="-158.3" font-family="Times,serif" font-size="14.00">MulleObjCValueFoundation</text>
</a>
</g>
</g>
<!-- MulleObjCUUIDFoundation&#45;&gt;MulleObjCValueFoundation -->
<g id="edge6" class="edge">
<title>MulleObjCUUIDFoundation&#45;&gt;MulleObjCValueFoundation</title>
<path fill="none" stroke="black" d="M434.71,-215.7C425.33,-207.05 413.82,-196.45 403.59,-187.03"/>
<polygon fill="black" stroke="black" points="405.8,-184.3 396.07,-180.1 401.05,-189.45 405.8,-184.3"/>
</g>
<!-- uuid4 -->
<g id="node10" class="node">
<title>uuid4</title>
<g id="a_node10"><a xlink:href="https://github.com/rxi/uuid4" xlink:title="uuid4">
<polygon fill="lightgrey" stroke="black" points="559,-180 502,-180 502,-144 559,-144 559,-180"/>
<text text-anchor="middle" x="530.5" y="-158.3" font-family="Times,serif" font-size="14.00">uuid4</text>
</a>
</g>
</g>
<!-- MulleObjCUUIDFoundation&#45;&gt;uuid4 -->
<g id="edge7" class="edge">
<title>MulleObjCUUIDFoundation&#45;&gt;uuid4</title>
<path fill="none" stroke="black" d="M472.53,-215.7C482.04,-207.05 493.71,-196.45 504.07,-187.03"/>
<polygon fill="black" stroke="black" points="506.64,-189.42 511.69,-180.1 501.93,-184.24 506.64,-189.42"/>
</g>
<!-- mulle&#45;allocator -->
<g id="node2" class="node">
<title>mulle&#45;allocator</title>
<g id="a_node2"><a xlink:href="https://github.com/mulle-c/mulle-allocator" xlink:title="mulle&#45;allocator">
<polygon fill="lightgrey" stroke="black" points="123,-36 0,-36 0,0 123,0 123,-36"/>
<text text-anchor="middle" x="61.5" y="-14.3" font-family="Times,serif" font-size="14.00">mulle&#45;allocator</text>
</a>
</g>
</g>
<!-- mulle&#45;buffer -->
<g id="node3" class="node">
<title>mulle&#45;buffer</title>
<g id="a_node3"><a xlink:href="https://github.com/mulle-c/mulle-buffer" xlink:title="mulle&#45;buffer">
<polygon fill="lightgrey" stroke="black" points="239.5,-108 135.5,-108 135.5,-72 239.5,-72 239.5,-108"/>
<text text-anchor="middle" x="187.5" y="-86.3" font-family="Times,serif" font-size="14.00">mulle&#45;buffer</text>
</a>
</g>
</g>
<!-- mulle&#45;buffer&#45;&gt;mulle&#45;allocator -->
<g id="edge1" class="edge">
<title>mulle&#45;buffer&#45;&gt;mulle&#45;allocator</title>
<path fill="none" stroke="black" d="M156.68,-71.88C140.05,-62.64 119.34,-51.13 101.48,-41.21"/>
<polygon fill="black" stroke="black" points="102.88,-37.99 92.44,-36.19 99.48,-44.11 102.88,-37.99"/>
</g>
<!-- mulle&#45;data -->
<g id="node4" class="node">
<title>mulle&#45;data</title>
<g id="a_node4"><a xlink:href="https://github.com/mulle-c/mulle-data" xlink:title="mulle&#45;data">
<polygon fill="lightgrey" stroke="black" points="233.5,-36 141.5,-36 141.5,0 233.5,0 233.5,-36"/>
<text text-anchor="middle" x="187.5" y="-14.3" font-family="Times,serif" font-size="14.00">mulle&#45;data</text>
</a>
</g>
</g>
<!-- mulle&#45;buffer&#45;&gt;mulle&#45;data -->
<g id="edge2" class="edge">
<title>mulle&#45;buffer&#45;&gt;mulle&#45;data</title>
<path fill="none" stroke="black" d="M187.5,-71.7C187.5,-63.98 187.5,-54.71 187.5,-46.11"/>
<polygon fill="black" stroke="black" points="191,-46.1 187.5,-36.1 184,-46.1 191,-46.1"/>
</g>
<!-- mulle&#45;objc&#45;cc -->
<g id="node5" class="node">
<title>mulle&#45;objc&#45;cc</title>
<g id="a_node5"><a xlink:href="https://github.com/mulle-cc/mulle-objc-cc" xlink:title="mulle&#45;objc&#45;cc">
<polygon fill="lightgrey" stroke="black" points="361.5,-36 251.5,-36 251.5,0 361.5,0 361.5,-36"/>
<text text-anchor="middle" x="306.5" y="-14.3" font-family="Times,serif" font-size="14.00">mulle&#45;objc&#45;cc</text>
</a>
</g>
</g>
<!-- mulle&#45;objc&#45;debug -->
<g id="node6" class="node">
<title>mulle&#45;objc&#45;debug</title>
<g id="a_node6"><a xlink:href="https://github.com/mulle-objc/mulle-objc-debug" xlink:title="mulle&#45;objc&#45;debug">
<polygon fill="lightgrey" stroke="black" points="519,-36 380,-36 380,0 519,0 519,-36"/>
<text text-anchor="middle" x="449.5" y="-14.3" font-family="Times,serif" font-size="14.00">mulle&#45;objc&#45;debug</text>
</a>
</g>
</g>
<!-- MulleObjC -->
<g id="node7" class="node">
<title>MulleObjC</title>
<g id="a_node7"><a xlink:href="https://github.com/mulle-objc/MulleObjC" xlink:title="MulleObjC">
<polygon fill="lightgrey" stroke="black" points="423.5,-108 331.5,-108 331.5,-72 423.5,-72 423.5,-108"/>
<text text-anchor="middle" x="377.5" y="-86.3" font-family="Times,serif" font-size="14.00">MulleObjC</text>
</a>
</g>
</g>
<!-- MulleObjC&#45;&gt;mulle&#45;objc&#45;cc -->
<g id="edge3" class="edge">
<title>MulleObjC&#45;&gt;mulle&#45;objc&#45;cc</title>
<path fill="none" stroke="black" d="M359.95,-71.7C351.27,-63.14 340.64,-52.66 331.15,-43.3"/>
<polygon fill="black" stroke="black" points="333.43,-40.63 323.85,-36.1 328.51,-45.62 333.43,-40.63"/>
</g>
<!-- MulleObjC&#45;&gt;mulle&#45;objc&#45;debug -->
<g id="edge4" class="edge">
<title>MulleObjC&#45;&gt;mulle&#45;objc&#45;debug</title>
<path fill="none" stroke="black" d="M395.3,-71.7C404.1,-63.14 414.88,-52.66 424.5,-43.3"/>
<polygon fill="black" stroke="black" points="427.18,-45.58 431.91,-36.1 422.3,-40.57 427.18,-45.58"/>
</g>
<!-- mulle&#45;objc&#45;runtime -->
<g id="node8" class="node">
<title>mulle&#45;objc&#45;runtime</title>
<g id="a_node8"><a xlink:href="https://github.com/mulle-objc/mulle-objc-runtime" xlink:title="mulle&#45;objc&#45;runtime">
<polygon fill="lightgrey" stroke="black" points="689.5,-36 537.5,-36 537.5,0 689.5,0 689.5,-36"/>
<text text-anchor="middle" x="613.5" y="-14.3" font-family="Times,serif" font-size="14.00">mulle&#45;objc&#45;runtime</text>
</a>
</g>
</g>
<!-- MulleObjC&#45;&gt;mulle&#45;objc&#45;runtime -->
<g id="edge5" class="edge">
<title>MulleObjC&#45;&gt;mulle&#45;objc&#45;runtime</title>
<path fill="none" stroke="black" d="M423.64,-74.96C426.97,-73.96 430.29,-72.96 433.5,-72 470.43,-60.96 511.67,-48.8 545.35,-38.92"/>
<polygon fill="black" stroke="black" points="546.49,-42.23 555.1,-36.06 544.52,-35.52 546.49,-42.23"/>
</g>
<!-- MulleObjCValueFoundation&#45;&gt;mulle&#45;buffer -->
<g id="edge8" class="edge">
<title>MulleObjCValueFoundation&#45;&gt;mulle&#45;buffer</title>
<path fill="none" stroke="black" d="M331.02,-143.88C304.58,-134.14 271.3,-121.87 243.44,-111.61"/>
<polygon fill="black" stroke="black" points="244.42,-108.24 233.83,-108.07 242,-114.81 244.42,-108.24"/>
</g>
<!-- MulleObjCValueFoundation&#45;&gt;MulleObjC -->
<g id="edge9" class="edge">
<title>MulleObjCValueFoundation&#45;&gt;MulleObjC</title>
<path fill="none" stroke="black" d="M377.5,-143.7C377.5,-135.98 377.5,-126.71 377.5,-118.11"/>
<polygon fill="black" stroke="black" points="381,-118.1 377.5,-108.1 374,-118.1 381,-118.1"/>
</g>
<!-- mulle&#45;utf -->
<g id="node11" class="node">
<title>mulle&#45;utf</title>
<g id="a_node11"><a xlink:href="https://github.com/mulle-c/mulle-utf" xlink:title="mulle&#45;utf">
<polygon fill="lightgrey" stroke="black" points="523,-108 442,-108 442,-72 523,-72 523,-108"/>
<text text-anchor="middle" x="482.5" y="-86.3" font-family="Times,serif" font-size="14.00">mulle&#45;utf</text>
</a>
</g>
</g>
<!-- MulleObjCValueFoundation&#45;&gt;mulle&#45;utf -->
<g id="edge10" class="edge">
<title>MulleObjCValueFoundation&#45;&gt;mulle&#45;utf</title>
<path fill="none" stroke="black" d="M403.19,-143.88C416.79,-134.81 433.67,-123.55 448.36,-113.76"/>
<polygon fill="black" stroke="black" points="450.34,-116.65 456.72,-108.19 446.45,-110.82 450.34,-116.65"/>
</g>
</g>
</svg>
